HIERARCHY
ROOT Hips
{
	OFFSET -0.001795 -0.223333 0.028219
	CHANNELS 6 Xposition Yposition Zposition Zrotation Yrotation Xrotation
	JOINT LeftUpLeg
	{
		OFFSET 0.069520 -0.091406 -0.006815
		CHANNELS 3 Zrotation Yrotation Xrotation
		JOINT LeftLeg
		{
			OFFSET 0.034277 -0.375199 -0.004496
			CHANNELS 3 Zrotation Yrotation Xrotation
			JOINT LeftFoot
			{
				OFFSET -0.013596 -0.397961 -0.043693
				CHANNELS 3 Zrotation Yrotation Xrotation
				JOINT LeftToe
				{
					OFFSET 0.026358 -0.055791 0.119288
					CHANNELS 3 Zrotation Yrotation Xrotation
					End Site
					{
						OFFSET 0.000000 0.000000 0.000000
					}
				}
			}
		}
	}
	JOINT RightUpLeg
	{
		OFFSET -0.067670 -0.090522 -0.004320
		CHANNELS 3 Zrotation Yrotation Xrotation
		JOINT RightLeg
		{
			OFFSET -0.038290 -0.382569 -0.008850
			CHANNELS 3 Zrotation Yrotation Xrotation
			JOINT RightFoot
			{
				OFFSET 0.015774 -0.398415 -0.042312
				CHANNELS 3 Zrotation Yrotation Xrotation
				JOINT RightToe
				{
					OFFSET -0.025372 -0.048144 0.123348
					CHANNELS 3 Zrotation Yrotation Xrotation
					End Site
					{
						OFFSET 0.000000 0.000000 0.000000
					}
				}
			}
		}
	}
	JOINT Spine
	{
		OFFSET -0.002533 0.108963 -0.026696
		CHANNELS 3 Zrotation Yrotation Xrotation
		JOINT Spine1
		{
			OFFSET 0.005487 0.135180 0.001092
			CHANNELS 3 Zrotation Yrotation Xrotation
			JOINT Spine2
			{
				OFFSET 0.001457 0.052922 0.025425
				CHANNELS 3 Zrotation Yrotation Xrotation
				JOINT Neck
				{
					OFFSET -0.002778 0.213870 -0.042857
					CHANNELS 3 Zrotation Yrotation Xrotation
					JOINT Head
					{
						OFFSET 0.005152 0.064970 0.051349
						CHANNELS 3 Zrotation Yrotation Xrotation
						End Site
						{
							OFFSET 0.000000 0.000000 0.000000
						}
					}
				}
				JOINT LeftShoulder
				{
					OFFSET 0.078845 0.121749 -0.034090
					CHANNELS 3 Zrotation Yrotation Xrotation
					JOINT LeftArm
					{
						OFFSET 0.090977 0.030469 -0.008868
						CHANNELS 3 Zrotation Yrotation Xrotation
						JOINT LeftForeArm
						{
							OFFSET 0.259612 -0.012772 -0.027456
							CHANNELS 3 Zrotation Yrotation Xrotation
							JOINT LeftHand
							{
								OFFSET 0.249234 0.008986 -0.001171
								CHANNELS 3 Zrotation Yrotation Xrotation
								End Site
								{
									OFFSET 0.000000 0.000000 0.000000
								}
							}
						}
					}
				}
				JOINT RightShoulder
				{
					OFFSET -0.081759 0.118833 -0.038615
					CHANNELS 3 Zrotation Yrotation Xrotation
					JOINT RightArm
					{
						OFFSET -0.096012 0.032551 -0.009143
						CHANNELS 3 Zrotation Yrotation Xrotation
						JOINT RightForeArm
						{
							OFFSET -0.253742 -0.013329 -0.021401
							CHANNELS 3 Zrotation Yrotation Xrotation
							JOINT RightHand
							{
								OFFSET -0.255298 0.007772 -0.005559
								CHANNELS 3 Zrotation Yrotation Xrotation
								End Site
								{
									OFFSET 0.000000 0.000000 0.000000
								}
							}
						}
					}
				}
			}
		}
	}
}
MOTION
Frames: 7
Frame Time: 0.050000
0.000000 1.112836 0.000000 -2.031423 2.070330 71.164130 -14.214969 -6.230630 -47.730768 -30.679021 23.873515 77.425505 4.166980 31.389762 -91.259875 0.000000 0.000000 0.000000 0.140663 11.314715 -82.142321 -2.069203 1.027033 12.644319 -6.247667 -10.889932 -35.228822 0.000000 0.000000 0.000000 -5.340482 4.144803 126.701757 8.435170 -1.132622 -24.869660 9.824549 51.280194 20.282622 -20.451943 -30.269363 132.718850 0.000000 0.000000 0.000000 -77.434561 -40.548979 -38.828556 172.516517 -41.390016 40.809598 -5.909476 12.133251 -0.310815 0.000000 0.000000 0.000000 29.726731 30.914258 50.912505 -121.425848 -21.302329 43.520556 21.273937 -2.694856 -3.174873 0.000000 0.000000 0.000000
-0.002561 1.149402 0.013916 -0.964404 4.054571 77.089424 14.897404 2.365895 -87.865036 -105.753494 59.834698 36.178492 124.622585 57.818433 109.074722 0.000000 0.000000 0.000000 2.132929 10.278400 -86.566684 1.382495 1.253432 39.842498 -8.542605 -15.837069 -66.903075 0.000000 0.000000 0.000000 -10.776314 7.803456 116.952751 4.133527 -0.162771 -24.786504 26.929866 45.716138 31.444976 -18.003114 -19.935453 132.977318 0.000000 0.000000 0.000000 7.184163 -38.520942 -12.569727 98.472529 4.219782 -42.590971 -16.051880 17.159357 -7.566011 0.000000 0.000000 0.000000 -47.919175 32.739377 -5.426290 -42.371143 -11.102913 17.631341 -1.101318 0.899997 0.288097 0.000000 0.000000 0.000000
-0.003464 1.162762 0.024263 -91.677791 -64.958583 32.283086 35.838748 46.934811 -168.979140 7.241664 -54.421846 -145.843197 -17.881643 35.522924 -111.054477 0.000000 0.000000 0.000000 2.251295 -32.529509 58.913283 -96.858503 31.908934 -15.227278 -24.845615 -6.189735 -91.707702 0.000000 0.000000 0.000000 11.385913 -32.669485 -146.493341 -2.936566 0.456466 -22.080064 -50.502952 -48.978449 64.773251 -16.303723 -16.115935 -78.944520 0.000000 0.000000 0.000000 43.838963 -21.783251 6.438517 40.232293 -0.149889 0.943904 1.439572 16.551267 -0.891114 0.000000 0.000000 0.000000 -43.410802 8.539533 1.219443 -27.629265 26.208759 -7.611863 -18.184280 -15.082481 2.431264 0.000000 0.000000 0.000000
-0.002299 1.159400 0.028884 -62.562473 -60.831658 0.420521 13.972878 -11.991314 -156.250688 -120.171714 11.504097 27.718520 9.536316 19.896567 -108.162081 0.000000 0.000000 0.000000 2.966242 -1.078103 63.313983 -88.191612 45.991313 15.706629 -12.251373 -13.139845 -88.688717 0.000000 0.000000 0.000000 -106.713518 -48.684625 -44.422615 0.276001 0.600091 -24.478343 -158.313704 -29.867308 157.654786 -2.408213 -1.676383 -58.826691 0.000000 0.000000 0.000000 56.881862 -5.973905 1.346745 21.311183 -16.489705 5.509100 6.438512 15.261689 3.024261 0.000000 0.000000 0.000000 -54.345974 -3.657538 21.611185 -31.534440 25.332444 -26.800186 -11.720895 -9.570212 -3.233966 0.000000 0.000000 0.000000
0.000537 1.132813 0.033821 -56.647654 -59.326686 -6.078557 -12.177162 -33.902018 -139.660363 -35.499890 12.104851 110.600022 -1.624749 39.173335 -99.989577 0.000000 0.000000 0.000000 -14.631181 20.055195 57.298131 -97.740497 38.334464 8.646206 -14.715710 -4.692198 -75.217103 0.000000 0.000000 0.000000 -131.956795 -15.143256 -27.750098 -0.365266 0.956583 -24.016407 -177.655360 4.457576 165.806048 2.972881 3.118006 -58.149244 0.000000 0.000000 0.000000 57.495023 6.631878 26.838822 28.247359 -24.524014 9.098744 -1.254645 25.822095 6.973588 0.000000 0.000000 0.000000 -55.024021 -0.619009 1.904234 -14.853246 27.101486 -17.532453 -14.335427 -3.306599 -7.629044 0.000000 0.000000 0.000000
0.003613 1.105704 0.046421 -49.123754 -57.542087 -19.596879 -15.474813 -24.335444 -131.198690 -22.522550 0.860265 122.532553 -4.302752 45.028936 -92.732019 0.000000 0.000000 0.000000 -35.698275 34.864104 54.095251 -97.602564 18.668039 -6.318779 -15.434783 22.067016 -59.771616 0.000000 0.000000 0.000000 -128.994973 -17.690806 -31.254939 0.821615 0.671502 -24.866497 -179.737105 6.746025 163.461679 0.756680 0.367443 -59.597716 0.000000 0.000000 0.000000 60.403652 -6.667489 -35.732258 1.467101 -15.492050 -10.817920 11.925637 -1.784677 -8.773402 0.000000 0.000000 0.000000 -56.768056 -18.199899 54.796094 -44.593990 17.509562 15.320095 7.529858 -21.663109 6.427094 0.000000 0.000000 0.000000
0.005151 1.071684 0.071758 -78.969731 -40.256498 24.594392 -16.746519 -56.958441 -133.944996 -15.594983 -31.794466 127.374674 0.958725 36.781470 -92.140057 0.000000 0.000000 0.000000 -21.028570 16.483219 28.839193 -102.027362 12.509150 -1.779591 37.159945 58.205969 22.283048 0.000000 0.000000 0.000000 -124.400592 0.020987 -12.285995 0.985323 0.652741 -24.599797 167.463464 32.929556 157.025702 1.559065 -1.353499 -64.776185 0.000000 0.000000 0.000000 53.563673 -2.555901 -19.592756 8.775825 -18.772898 -7.606451 18.367576 7.498270 -8.746469 0.000000 0.000000 0.000000 -49.551691 -14.958595 36.600292 -36.295822 18.578063 10.825135 -2.003011 -21.703670 8.126659 0.000000 0.000000 0.000000
